<?xml version="1.0" encoding="UTF-8" standalone="no"?>
<!-- Created with Inkscape (http://www.inkscape.org/) -->

<svg
   width="170.13789mm"
   height="197.31958mm"
   viewBox="0 0 170.13789 197.31958"
   version="1.1"
   id="svg5"
   xml:space="preserve"
   xmlns="http://www.w3.org/2000/svg"
   xmlns:svg="http://www.w3.org/2000/svg"><defs
     id="defs2" /><g
     id="layer1"
     transform="translate(-19.958789,-44.579702)"><path
       style="fill:#000000;stroke-width:0.671958"
       id="path179"
       d="" /><path
       style="fill:#000000;stroke-width:0.254"
       d="m 59.540694,241.2975 c -3.5314,-1.06515 -8.65818,-3.98566 -13.716,-7.81341 -10.68077,-8.08316 -18.50516,-18.49268 -22.97615,-30.5673 -2.26954,-6.12926 -3.09085,-11.22001 -2.84906,-17.65947 0.40534,-10.79544 3.88724,-23.10625 11.42247,-40.386 4.0268,-9.23425 4.75443,-10.79445 5.1825,-11.1125 0.31739,-0.23582 2.21187,-0.3175 7.36379,-0.3175 6.59778,0 6.96125,0.0248 7.44445,0.508 0.61594,0.61594 0.66277,1.84115 0.0886,2.3184 -0.32036,0.26628 -1.89109,0.37859 -6.65188,0.4756 l -6.23249,0.127 -1.48705,3.302 c -5.25355,11.66552 -8.58128,20.24875 -10.71364,27.63375 -1.07387,3.71915 -2.2941,9.04136 -2.11417,9.22129 0.0478,0.0478 2.33306,-1.21479 5.07832,-2.8058 2.74526,-1.591 5.23073,-2.9687 5.52328,-3.06155 0.31241,-0.0991 0.77206,-0.0114 1.11388,0.21251 0.32009,0.20973 2.05209,2.93383 3.84888,6.05356 1.79679,3.11973 4.05996,7.04384 5.02926,8.72024 0.9693,1.6764 2.21564,3.8481 2.76963,4.826 1.91474,3.37982 1.52233,3.37001 3.41577,0.0854 1.99465,-3.46014 2.24939,-3.76845 3.11364,-3.76845 0.6134,0 4.65223,2.24036 16.90297,9.37617 2.0955,1.22059 5.46735,3.17222 7.493,4.33696 13.39255,7.70069 12.192,6.92161 12.192,7.91181 0,0.48772 -0.4371,1.50968 -1.143,2.6724 -0.62865,1.03547 -1.143,1.93577 -1.143,2.00067 0,0.0649 1.65735,0.11799 3.683,0.11799 h 3.683 v -10.88263 c 0,-10.73946 0.007,-10.889 0.53444,-11.3665 0.50421,-0.4565 1.17952,-0.49106 11.937106,-0.61087 l 11.40267,-0.127 -1.77215,-3.048 c -2.02046,-3.47509 -2.209,-4.37039 -1.08357,-5.14545 0.67639,-0.46582 3.36957,-2.03065 20.8915,-12.13875 4.54025,-2.6192 9.60864,-5.54531 11.26309,-6.50249 3.11598,-1.80273 4.12289,-2.0756 4.78174,-1.29581 0.20656,0.24447 1.52499,2.44475 2.92984,4.8895 6.22261,10.8287 7.39228,12.81054 7.6007,12.87827 0.1219,0.0396 0.64243,-0.69866 1.15675,-1.64062 2.56911,-4.70529 5.2987,-9.11563 5.83368,-9.42576 0.65956,-0.38236 1.30741,-0.17941 3.39862,1.06462 4.74683,2.82386 10.84773,6.292 10.92771,6.21202 0.32517,-0.32516 -2.12514,-9.45228 -4.0083,-14.93053 -2.00713,-5.83889 -7.73874,-19.74186 -9.82312,-23.82756 l -0.54302,-1.06444 h -32.57734 c -36.17786,0 -33.70635,0.12106 -33.70635,-1.651 0,-1.77355 -2.56828,-1.651 34.60052,-1.651 31.98403,0 33.49195,0.0205 33.93206,0.46058 0.50543,0.50543 5.00215,10.51714 7.60781,16.93842 4.47195,11.02043 6.96684,19.35155 8.36709,27.94 0.69517,4.26389 0.62021,13.30537 -0.13887,16.74763 -2.26839,10.28673 -7.90194,20.90985 -15.47068,29.17292 -6.7657,7.38633 -17.168,14.77792 -23.29662,16.55393 l -2.22414,0.64453 -43.46908,-0.0136 -43.469086,-0.0136 z m 16.15068,-12.22518 c 2.98873,-5.1689 5.55833,-9.61054 5.71022,-9.87032 2.7558,-4.71334 5.3155,-9.27066 5.30978,-9.45362 -0.006,-0.19205 -4.91001,-3.1108 -10.88892,-6.48084 -0.64282,-0.36233 -3.74051,-2.14688 -6.88376,-3.96567 -11.78659,-6.82012 -13.76848,-7.94855 -13.96019,-7.94855 -0.18135,0 -3.56581,5.65105 -3.56581,5.95384 0,0.0737 2.57175,4.58032 5.715,10.01462 4.03962,6.98402 5.715,10.1075 5.715,10.65474 0,0.55688 -0.19608,0.91129 -0.6985,1.26252 -0.88052,0.61557 -15.623,9.14189 -16.16928,9.35152 -0.22232,0.0853 -0.40422,0.24569 -0.40422,0.3564 0,0.27232 3.89213,3.14337 6.858,5.05883 3.0538,1.97226 7.15457,4.02113 8.63699,4.31532 0.62811,0.12464 2.95318,0.20921 5.16683,0.18792 l 4.02481,-0.0387 z m 20.17132,-1.27 v -10.795 h -4.65508 -4.65507 l -6.01689,10.40357 c -3.3093,5.72196 -6.08449,10.57972 -6.1671,10.795 -0.13385,0.34881 1.02842,0.39144 10.67196,0.39144 h 10.82218 z M 136.24869,216.37066 V 194.144 l -18.4785,0.0652 -18.478496,0.0652 -0.0649,22.1615 -0.0649,22.16151 h 18.543396 18.54339 z m 13.04434,21.82768 c 1.8756,-0.4795 5.95812,-2.60657 9.43466,-4.91563 2.75453,-1.82951 5.97054,-4.28261 5.96645,-4.55108 -0.002,-0.14276 -4.82908,-2.99791 -9.24015,-5.46562 -0.71407,-0.39947 -2.53656,-1.45675 -4.04999,-2.3495 -1.51343,-0.89275 -2.79729,-1.62319 -2.85303,-1.62319 -0.27326,0 -3.58023,-2.13029 -3.85678,-2.48447 -0.41789,-0.53519 -0.40397,-1.59553 0.0292,-2.22151 0.19067,-0.27556 1.43131,-2.38697 2.75699,-4.69202 1.32567,-2.30505 4.55928,-7.90575 7.1858,-12.446 2.62652,-4.54025 5.44875,-9.42282 6.27163,-10.85016 l 1.49614,-2.59516 -1.88706,-3.24684 c -1.03788,-1.78576 -3.35768,-5.78929 -5.1551,-8.89674 -1.79744,-3.10744 -3.35652,-5.65061 -3.46464,-5.6515 -0.10811,-7.6e-4 -1.65116,0.8391 -3.429,1.86663 -1.77783,1.02753 -4.77547,2.76016 -6.66142,3.8503 -1.88595,1.09014 -4.85775,2.80305 -6.604,3.80647 -16.31225,9.37321 -15.31031,8.74394 -14.90898,9.36373 0.19312,0.29825 1.01798,1.71384 1.83301,3.14577 l 1.48188,2.6035 h 7.28679 c 6.98725,0 7.3143,0.0216 7.95605,0.52644 l 0.66925,0.52643 v 23.34957 23.34957 h 4.09084 c 2.88656,0 4.55027,-0.11746 5.6515,-0.39899 z M 46.081284,224.71487 c 9.2329,-5.28947 12.70989,-7.34701 12.73341,-7.53511 0.0144,-0.11471 -0.94743,-1.88636 -2.13727,-3.937 -2.82144,-4.86266 -13.8071,-23.88809 -16.89267,-29.25544 -1.32512,-2.30505 -3.03174,-5.25209 -3.79249,-6.54898 l -1.38318,-2.35797 -0.80569,0.48157 c -0.44314,0.26487 -2.93244,1.69893 -5.53178,3.1868 l -4.72608,2.70522 -0.16162,1.71118 c -0.236,2.4988 -0.19734,5.96005 0.0957,8.56918 0.95196,8.4759 5.94742,19.54292 12.44038,27.5606 2.2895,2.82715 6.58725,7.42389 6.83391,7.30936 0.0852,-0.0396 1.58256,-0.88981 3.32738,-1.88941 z m 123.476786,-0.27805 c 6.0563,-6.18203 10.76081,-13.29387 13.79337,-20.8515 1.24069,-3.09198 2.46893,-7.10033 2.93096,-9.565 0.40584,-2.16498 0.61493,-7.69779 0.39944,-10.56894 l -0.18324,-2.44093 -1.56644,-0.88233 c -0.86157,-0.48528 -3.39527,-1.94265 -5.63047,-3.23861 -2.2352,-1.29596 -4.65079,-2.68998 -5.36801,-3.09784 l -1.30401,-0.74155 -8.82893,15.3111 c -4.85592,8.4211 -9.36554,16.2255 -10.02138,17.3431 -3.41476,5.81902 -5.33854,9.21478 -5.33741,9.42135 7.6e-4,0.12686 3.91547,2.48778 8.6995,5.2465 4.78403,2.75872 9.04114,5.23639 9.46024,5.50593 0.4191,0.26955 0.82183,0.49844 0.89496,0.50865 0.0731,0.0102 1.00077,-0.86726 2.06142,-1.94993 z M 57.588794,158.33511 c -0.30519,-0.12493 -0.67666,-0.45467 -0.8255,-0.73276 -0.18642,-0.34834 -0.2706,-8.60571 -0.2706,-26.54415 v -26.03851 l -2.6408,-5.918677 c -1.45244,-3.25528 -3.00736,-6.71879 -3.45538,-7.69669 -0.90406,-1.97333 -1.51269,-4.47283 -1.51941,-6.23985 -0.0102,-2.67349 0.5066,-4.07078 5.25282,-14.20326 6.49726,-13.87069 6.42145,-13.73218 8.8314,-16.13649 3.17447,-3.16706 6.22535,-4.46795 11.38189,-4.85323 l 2.34248,-0.17502 1.48218,-1.33803 c 1.83924,-1.66035 4.50522,-2.99807 7.11358,-3.56942 1.88242,-0.41233 2.50984,-0.41236 11.43011,-5e-4 24.579486,1.13483 33.329956,2.43561 42.087596,6.25644 4.63213,2.02092 9.68455,5.66102 11.44475,8.24555 l 0.60978,0.89534 4.2545,0.002 4.2545,0.002 v -1.23575 c 0,-0.86557 0.1577,-1.43623 0.52644,-1.905 l 0.52643,-0.66934 h 14.27606 c 12.50983,0 14.34589,0.0489 14.84056,0.3954 l 0.56451,0.39541 v 28.14023 c 0,26.939217 -0.0198,28.158167 -0.46449,28.560587 -0.4207,0.38072 -1.81785,0.42037 -14.81046,0.42037 -11.98255,0 -14.42718,-0.0593 -14.839,-0.36019 -0.4627,-0.33803 -0.4977,-0.76794 -0.56858,-6.985 l -0.0755,-6.62481 h -1.98549 -1.98549 l -1.49498,1.42311 c -5.90144,5.61768 -14.38261,9.50011 -22.40583,10.25673 -3.22831,0.30444 -7.21314,9e-5 -10.51294,-0.80295 l -2.21377,-0.53875 -9.27694,3.91143 -9.27693,3.91143 -0.003,19.33936 c -0.003,18.65954 -0.0199,19.36044 -0.488256,19.939 l -0.48548,0.59964 -20.53302,0.051 c -11.61987,0.0288 -20.7739,-0.0476 -21.08792,-0.17617 z m 39.2899,-20.70279 c 0,-9.56945 -0.0921,-17.399 -0.20464,-17.399 -0.11256,0 -1.16983,0.38717 -2.3495,0.86038 -2.60834,1.04629 -4.27319,1.29695 -6.22176,0.93673 -5.81664,-1.07526 -9.34863,-6.95157 -7.4861,-12.4549 0.30542,-0.90244 0.77668,-1.95169 1.04725,-2.33167 0.27057,-0.37998 0.3923,-0.75246 0.27051,-0.82773 -0.12179,-0.0753 -5.12448,-0.11187 -11.1171,-0.0813 l -10.89566,0.0555 -0.0648,24.3205 -0.0648,24.3205 h 18.54327 18.54328 z m -3.302,-19.87256 c 4.60892,-1.88937 3.81963,-1.55595 20.899936,-8.82864 4.3534,-1.85366 4.08264,-1.82048 7.29406,-0.89367 2.70444,0.7805 8.89604,0.99122 11.99129,0.4081 6.53528,-1.2312 13.49872,-4.81071 17.94027,-9.222067 l 2.11855,-2.10416 h 2.77095 2.77094 v -16.74488 -16.74488 l -4.95349,-0.0273 c -2.72442,-0.015 -5.09644,-0.0821 -5.27114,-0.14917 -0.17471,-0.067 -0.62922,-0.61439 -1.01004,-1.21633 -1.63543,-2.58506 -5.35999,-5.48776 -9.70444,-7.56306 -7.78604,-3.71931 -15.81484,-5.08592 -36.33789,-6.18522 -15.636416,-0.83754 -15.863946,-0.8284 -19.119276,0.76824 -2.42574,1.18976 -4.19634,2.96329 -5.94275,5.95258 -6.96917,11.92899 -12.6111,22.00431 -13.0855,23.368 -0.97033,2.78924 -0.85986,3.65271 1.86025,14.5415 l 2.45874,9.842497 h 2.88077 c 2.4335,0 2.88077,-0.0612 2.88077,-0.39397 0,-0.21668 -0.53431,-3.788557 -1.18736,-7.937497 -0.71974,-4.57265 -1.1949,-8.44383 -1.2065,-9.82953 -0.0335,-4.00322 0.8086,-5.78622 6.53811,-13.843 0.44706,-0.62865 2.4569,-3.48615 4.46632,-6.35 2.00941,-2.86385 3.9444,-5.52133 4.29998,-5.9055 0.72944,-0.78812 1.44436,-0.88345 2.27293,-0.3031 1.01205,0.70887 0.74771,1.69998 -1.1737,4.40052 -0.95602,1.34369 -3.26313,4.61478 -5.12692,7.26908 -1.86378,2.6543 -3.99589,5.66853 -4.73802,6.69829 -1.77421,2.46185 -2.81674,4.62668 -3.15437,6.55012 -0.23446,1.33563 -0.17911,2.18999 0.37847,5.842 1.44116,9.43931 1.94904,12.685557 2.07001,13.231087 0.12612,0.56874 0.15061,0.5715 5.06765,0.5715 4.64903,0 5.02151,-0.0356 6.30526,-0.60338 l 1.36434,-0.60337 -1.23558,-7.842127 c -0.67956,-4.31316 -1.19573,-8.07879 -1.14703,-8.36805 0.11783,-0.69988 11.27711,-16.5609 11.87792,-16.88244 0.321706,-0.17218 1.169466,-0.12883 2.699856,0.13805 1.22699,0.21397 3.76098,0.46242 5.63109,0.55211 l 3.40021,0.16307 0.98229,1.54657 c 1.68936,2.65982 4.70786,9.0344 5.78386,12.21457 1.24408,3.67691 2.02973,7.89107 1.66631,8.93788 -0.22006,0.63389 -0.86111,0.97508 -5.70602,3.03697 -3.00196,1.27757 -6.25821,2.67157 -7.23611,3.09779 -1.77528,0.77374 -13.376306,5.680917 -17.866996,7.557647 -4.0751,1.70304 -5.48591,3.39515 -5.48591,6.57971 0,3.17105 1.7994,5.46561 4.86616,6.20521 1.35181,0.32602 2.66124,0.0892 5.15175,-0.93177 z M 186.79469,85.432833 v -25.65648 l -12.0015,0.066 -12.0015,0.066 -0.0579,25.5905 -0.0578,25.590497 h 12.05934 12.05936 z m -13.589,21.608157 c -2.17406,-0.53162 -4.18379,-2.39691 -4.91529,-4.56207 -0.99467,-2.944037 0.39178,-6.428077 3.21948,-8.090347 1.02832,-0.6045 1.46066,-0.69825 3.21981,-0.69825 1.77302,0 2.2036,0.0951 3.37835,0.74587 0.74051,0.41023 1.68727,1.20942 2.10394,1.77599 2.14162,2.91216 1.89798,6.426177 -0.62012,8.944297 -1.797,1.79698 -4.03878,2.45851 -6.38617,1.88451 z m 3.0749,-3.54844 c 1.32062,-0.59975 2.27543,-2.3419 1.99448,-3.639207 -0.71191,-3.28719 -4.83471,-4.05887 -6.43859,-1.20514 -1.13421,2.018047 -0.22461,4.427237 1.91343,5.067947 1.07854,0.32322 1.38651,0.296 2.53068,-0.2236 z M 62.428204,93.415863 c -2.59454,-10.40807 -2.78156,-11.81663 -1.9798,-14.91074 0.52763,-2.0362 0.73117,-2.42185 7.65141,-14.4972 3.27126,-5.70812 5.88054,-10.4456 5.79841,-10.52774 -0.28747,-0.28747 -3.38836,0.40948 -4.96008,1.11483 -3.21222,1.44156 -5.02009,3.50648 -7.37615,8.42492 -0.83232,1.73752 -1.5133,3.19236 -1.5133,3.23296 0,0.0406 -0.97155,2.09713 -2.159,4.57004 -1.18745,2.47291 -2.159,4.52985 -2.159,4.57097 0,0.0411 -0.69609,1.54317 -1.54687,3.33789 -1.80012,3.79733 -2.19662,5.51724 -1.80993,7.85085 0.2356,1.42181 2.15682,6.02497 6.12038,14.664177 l 0.78659,1.7145 h 2.76342 2.76343 z m 33.43449,5.9753 c 1.04775,-0.44378 2.53365,-1.06583 3.302,-1.38231 0.76835,-0.3165 4.254496,-1.79586 7.746996,-3.28747 3.4925,-1.49162 7.06438,-3.0032 7.9375,-3.35906 1.48908,-0.60691 1.5875,-0.69821 1.5875,-1.47272 0,-2.30637 -2.38614,-8.72264 -5.2932,-14.23328 l -1.47394,-2.794 -3.66493,-0.30209 c -2.01571,-0.16616 -3.95068,-0.35469 -4.29993,-0.41898 -0.4991,-0.0919 -0.74639,0.0543 -1.15552,0.6831 -0.28628,0.43998 -1.651046,2.40017 -3.032796,4.35597 -1.38176,1.9558 -3.35579,4.75615 -4.38673,6.223 l -1.87443,2.667 0.16287,1.524 c 0.0896,0.8382 0.55477,4.01222 1.03374,7.05339 0.47898,3.04116 0.87087,5.596567 0.87087,5.678667 0,0.0821 0.14288,0.0868 0.3175,0.0105 0.17463,-0.0763 1.17475,-0.501907 2.2225,-0.945697 z"
       id="path352" /></g></svg>
