<?xml version="1.0" encoding="UTF-8"?>
<!-- Created with Inkscape (http://www.inkscape.org/) -->
<svg width="170.14mm" height="197.32mm" version="1.1" viewBox="0 0 170.14 197.32" xml:space="preserve" xmlns="http://www.w3.org/2000/svg"><g transform="translate(-19.959 -44.58)"><path d="m59.541 241.3c-3.5314-1.0652-8.6582-3.9857-13.716-7.8134-10.681-8.0832-18.505-18.493-22.976-30.567-2.2695-6.1293-3.0908-11.22-2.8491-17.659 0.40534-10.795 3.8872-23.106 11.422-40.386 4.0268-9.2342 4.7544-10.794 5.1825-11.112 0.31739-0.23582 2.2119-0.3175 7.3638-0.3175 6.5978 0 6.9612 0.0248 7.4444 0.508 0.61594 0.61594 0.66277 1.8412 0.0886 2.3184-0.32036 0.26628-1.8911 0.37859-6.6519 0.4756l-6.2325 0.127-1.487 3.302c-5.2536 11.666-8.5813 20.249-10.714 27.634-1.0739 3.7192-2.2941 9.0414-2.1142 9.2213 0.0478 0.0478 2.3331-1.2148 5.0783-2.8058 2.7453-1.591 5.2307-2.9687 5.5233-3.0616 0.31241-0.0991 0.77206-0.0114 1.1139 0.21251 0.32009 0.20973 2.0521 2.9338 3.8489 6.0536s4.06 7.0438 5.0293 8.7202 2.2156 3.8481 2.7696 4.826c1.9147 3.3798 1.5223 3.37 3.4158 0.0854 1.9946-3.4601 2.2494-3.7684 3.1136-3.7684 0.6134 0 4.6522 2.2404 16.903 9.3762 2.0955 1.2206 5.4674 3.1722 7.493 4.337 13.393 7.7007 12.192 6.9216 12.192 7.9118 0 0.48772-0.4371 1.5097-1.143 2.6724-0.62865 1.0355-1.143 1.9358-1.143 2.0007s1.6574 0.11799 3.683 0.11799h3.683v-10.883c0-10.739 7e-3 -10.889 0.53444-11.366 0.50421-0.4565 1.1795-0.49106 11.937-0.61087l11.403-0.127-1.7722-3.048c-2.0205-3.4751-2.209-4.3704-1.0836-5.1454 0.67639-0.46582 3.3696-2.0306 20.892-12.139 4.5402-2.6192 9.6086-5.5453 11.263-6.5025 3.116-1.8027 4.1229-2.0756 4.7817-1.2958 0.20656 0.24447 1.525 2.4448 2.9298 4.8895 6.2226 10.829 7.3923 12.811 7.6007 12.878 0.1219 0.0396 0.64243-0.69866 1.1568-1.6406 2.5691-4.7053 5.2987-9.1156 5.8337-9.4258 0.65956-0.38236 1.3074-0.17941 3.3986 1.0646 4.7468 2.8239 10.848 6.292 10.928 6.212 0.32517-0.32516-2.1251-9.4523-4.0083-14.931-2.0071-5.8389-7.7387-19.742-9.8231-23.828l-0.54302-1.0644h-32.577c-36.178 0-33.706 0.12106-33.706-1.651 0-1.7736-2.5683-1.651 34.601-1.651 31.984 0 33.492 0.0205 33.932 0.46058 0.50543 0.50543 5.0022 10.517 7.6078 16.938 4.472 11.02 6.9668 19.352 8.3671 27.94 0.69517 4.2639 0.62021 13.305-0.13887 16.748-2.2684 10.287-7.9019 20.91-15.471 29.173-6.7657 7.3863-17.168 14.778-23.297 16.554l-2.2241 0.64453-86.938-0.0272zm16.151-12.225c2.9887-5.1689 5.5583-9.6105 5.7102-9.8703 2.7558-4.7133 5.3155-9.2707 5.3098-9.4536-6e-3 -0.19205-4.91-3.1108-10.889-6.4808-0.64282-0.36233-3.7405-2.1469-6.8838-3.9657-11.787-6.8201-13.768-7.9486-13.96-7.9486-0.18135 0-3.5658 5.651-3.5658 5.9538 0 0.0737 2.5718 4.5803 5.715 10.015 4.0396 6.984 5.715 10.108 5.715 10.655 0 0.55688-0.19608 0.91129-0.6985 1.2625-0.88052 0.61557-15.623 9.1419-16.169 9.3515-0.22232 0.0853-0.40422 0.24569-0.40422 0.3564 0 0.27232 3.8921 3.1434 6.858 5.0588 3.0538 1.9723 7.1546 4.0211 8.637 4.3153 0.62811 0.12464 2.9532 0.20921 5.1668 0.18792l4.0248-0.0387zm20.171-1.27v-10.795h-9.3102l-6.0169 10.404c-3.3093 5.722-6.0845 10.58-6.1671 10.795-0.13385 0.34881 1.0284 0.39144 10.672 0.39144h10.822zm40.386-11.432v-22.227l-36.957 0.1304-0.0649 22.162-0.0649 22.162h37.087zm13.044 21.828c1.8756-0.4795 5.9581-2.6066 9.4347-4.9156 2.7545-1.8295 5.9705-4.2826 5.9664-4.5511-2e-3 -0.14276-4.8291-2.9979-9.2402-5.4656-0.71407-0.39947-2.5366-1.4568-4.05-2.3495s-2.7973-1.6232-2.853-1.6232c-0.27326 0-3.5802-2.1303-3.8568-2.4845-0.41789-0.53519-0.40397-1.5955 0.0292-2.2215 0.19067-0.27556 1.4313-2.387 2.757-4.692 1.3257-2.305 4.5593-7.9058 7.1858-12.446s5.4488-9.4228 6.2716-10.85l1.4961-2.5952-1.8871-3.2468c-1.0379-1.7858-3.3577-5.7893-5.1551-8.8967-1.7974-3.1074-3.3565-5.6506-3.4646-5.6515-0.10811-7.6e-4 -1.6512 0.8391-3.429 1.8666-1.7778 1.0275-4.7755 2.7602-6.6614 3.8503s-4.8578 2.803-6.604 3.8065c-16.312 9.3732-15.31 8.7439-14.909 9.3637 0.19312 0.29825 1.018 1.7138 1.833 3.1458l1.4819 2.6035h7.2868c6.9872 0 7.3143 0.0216 7.956 0.52644l0.66925 0.52643v46.699h4.0908c2.8866 0 4.5503-0.11746 5.6515-0.39899zm-103.21-13.483c9.2329-5.2895 12.71-7.347 12.733-7.5351 0.0144-0.11471-0.94743-1.8864-2.1373-3.937-2.8214-4.8627-13.807-23.888-16.893-29.255-1.3251-2.305-3.0317-5.2521-3.7925-6.549l-1.3832-2.358-0.80569 0.48157c-0.44314 0.26487-2.9324 1.6989-5.5318 3.1868l-4.7261 2.7052-0.16162 1.7112c-0.236 2.4988-0.19734 5.96 0.0957 8.5692 0.95196 8.4759 5.9474 19.543 12.44 27.561 2.2895 2.8272 6.5872 7.4239 6.8339 7.3094 0.0852-0.0396 1.5826-0.88981 3.3274-1.8894zm123.48-0.27805c6.0563-6.182 10.761-13.294 13.793-20.852 1.2407-3.092 2.4689-7.1003 2.931-9.565 0.40584-2.165 0.61493-7.6978 0.39944-10.569l-0.18324-2.4409-1.5664-0.88233c-0.86157-0.48528-3.3953-1.9426-5.6305-3.2386s-4.6508-2.69-5.368-3.0978l-1.304-0.74155-8.8289 15.311c-4.8559 8.4211-9.3655 16.226-10.021 17.343-3.4148 5.819-5.3385 9.2148-5.3374 9.4214 7.6e-4 0.12686 3.9155 2.4878 8.6995 5.2465s9.0411 5.2364 9.4602 5.5059c0.4191 0.26955 0.82183 0.49844 0.89496 0.50865 0.0731 0.0102 1.0008-0.86726 2.0614-1.9499zm-111.97-66.102c-0.30519-0.12493-0.67666-0.45467-0.8255-0.73276-0.18642-0.34834-0.2706-8.6057-0.2706-26.544v-26.039l-2.6408-5.9187c-1.4524-3.2553-3.0074-6.7188-3.4554-7.6967-0.90406-1.9733-1.5127-4.4728-1.5194-6.2398-0.0102-2.6735 0.5066-4.0708 5.2528-14.203 6.4973-13.871 6.4214-13.732 8.8314-16.136 3.1745-3.1671 6.2254-4.468 11.382-4.8532l2.3425-0.17502 1.4822-1.338c1.8392-1.6604 4.5052-2.9981 7.1136-3.5694 1.8824-0.41233 2.5098-0.41236 11.43-5e-4 24.579 1.1348 33.33 2.4356 42.088 6.2564 4.6321 2.0209 9.6846 5.661 11.445 8.2456l0.60978 0.89534 8.509 4e-3v-1.2358c0-0.86557 0.1577-1.4362 0.52644-1.905l0.52643-0.66934h14.276c12.51 0 14.346 0.0489 14.841 0.3954l0.56451 0.39541v28.14c0 26.939-0.0198 28.158-0.46449 28.561-0.4207 0.38072-1.8178 0.42037-14.81 0.42037-11.983 0-14.427-0.0593-14.839-0.36019-0.4627-0.33803-0.4977-0.76794-0.56858-6.985l-0.0755-6.6248h-3.971l-1.495 1.4231c-5.9014 5.6177-14.383 9.5001-22.406 10.257-3.2283 0.30444-7.2131 9e-5 -10.513-0.80295l-2.2138-0.53875-18.554 7.8229-3e-3 19.339c-3e-3 18.66-0.0199 19.36-0.48826 19.939l-0.48548 0.59964-20.533 0.051c-11.62 0.0288-20.774-0.0476-21.088-0.17617zm39.29-20.703c0-9.5694-0.0921-17.399-0.20464-17.399-0.11256 0-1.1698 0.38717-2.3495 0.86038-2.6083 1.0463-4.2732 1.297-6.2218 0.93673-5.8166-1.0753-9.3486-6.9516-7.4861-12.455 0.30542-0.90244 0.77668-1.9517 1.0472-2.3317s0.3923-0.75246 0.27051-0.82773c-0.12179-0.0753-5.1245-0.11187-11.117-0.0813l-10.896 0.0555-0.1296 48.641h37.087zm-3.302-19.873c4.6089-1.8894 3.8196-1.556 20.9-8.8286 4.3534-1.8537 4.0826-1.8205 7.2941-0.89367 2.7044 0.7805 8.896 0.99122 11.991 0.4081 6.5353-1.2312 13.499-4.8107 17.94-9.2221l2.1186-2.1042h5.5419v-33.49l-4.9535-0.0273c-2.7244-0.015-5.0964-0.0821-5.2711-0.14917-0.17471-0.067-0.62922-0.61439-1.01-1.2163-1.6354-2.5851-5.36-5.4878-9.7044-7.5631-7.786-3.7193-15.815-5.0859-36.338-6.1852-15.636-0.83754-15.864-0.8284-19.119 0.76824-2.4257 1.1898-4.1963 2.9633-5.9428 5.9526-6.9692 11.929-12.611 22.004-13.086 23.368-0.97033 2.7892-0.85986 3.6527 1.8602 14.542l2.4587 9.8425h2.8808c2.4335 0 2.8808-0.0612 2.8808-0.39397 0-0.21668-0.53431-3.7886-1.1874-7.9375-0.71974-4.5726-1.1949-8.4438-1.2065-9.8295-0.0335-4.0032 0.8086-5.7862 6.5381-13.843 0.44706-0.62865 2.4569-3.4862 4.4663-6.35 2.0094-2.8638 3.9444-5.5213 4.3-5.9055 0.72944-0.78812 1.4444-0.88345 2.2729-0.3031 1.012 0.70887 0.74771 1.7-1.1737 4.4005-0.95602 1.3437-3.2631 4.6148-5.1269 7.2691-1.8638 2.6543-3.9959 5.6685-4.738 6.6983-1.7742 2.4618-2.8167 4.6267-3.1544 6.5501-0.23446 1.3356-0.17911 2.19 0.37847 5.842 1.4412 9.4393 1.949 12.686 2.07 13.231 0.12612 0.56874 0.15061 0.5715 5.0676 0.5715 4.649 0 5.0215-0.0356 6.3053-0.60338l1.3643-0.60337-1.2356-7.8421c-0.67956-4.3132-1.1957-8.0788-1.147-8.368 0.11783-0.69988 11.277-16.561 11.878-16.882 0.32171-0.17218 1.1695-0.12883 2.6999 0.13805 1.227 0.21397 3.761 0.46242 5.6311 0.55211l3.4002 0.16307 0.98229 1.5466c1.6894 2.6598 4.7079 9.0344 5.7839 12.215 1.2441 3.6769 2.0297 7.8911 1.6663 8.9379-0.22006 0.63389-0.86111 0.97508-5.706 3.037-3.002 1.2776-6.2582 2.6716-7.2361 3.0978-1.7753 0.77374-13.376 5.6809-17.867 7.5576-4.0751 1.703-5.4859 3.3952-5.4859 6.5797 0 3.171 1.7994 5.4656 4.8662 6.2052 1.3518 0.32602 2.6612 0.0892 5.1518-0.93177zm93.218-32.327v-25.656l-24.003 0.132-0.0579 25.59-0.0578 25.59h24.119zm-13.589 21.608c-2.1741-0.53162-4.1838-2.3969-4.9153-4.5621-0.99467-2.944 0.39178-6.4281 3.2195-8.0903 1.0283-0.6045 1.4607-0.69825 3.2198-0.69825 1.773 0 2.2036 0.0951 3.3784 0.74587 0.74051 0.41023 1.6873 1.2094 2.1039 1.776 2.1416 2.9122 1.898 6.4262-0.62012 8.9443-1.797 1.797-4.0388 2.4585-6.3862 1.8845zm3.0749-3.5484c1.3206-0.59975 2.2754-2.3419 1.9945-3.6392-0.71191-3.2872-4.8347-4.0589-6.4386-1.2051-1.1342 2.018-0.22461 4.4272 1.9134 5.0679 1.0785 0.32322 1.3865 0.296 2.5307-0.2236zm-113.85-10.077c-2.5945-10.408-2.7816-11.817-1.9798-14.911 0.52763-2.0362 0.73117-2.4218 7.6514-14.497 3.2713-5.7081 5.8805-10.446 5.7984-10.528-0.28747-0.28747-3.3884 0.40948-4.9601 1.1148-3.2122 1.4416-5.0201 3.5065-7.3762 8.4249-0.83232 1.7375-1.5133 3.1924-1.5133 3.233s-0.97155 2.0971-2.159 4.57-2.159 4.5298-2.159 4.571c0 0.0411-0.69609 1.5432-1.5469 3.3379-1.8001 3.7973-2.1966 5.5172-1.8099 7.8508 0.2356 1.4218 2.1568 6.025 6.1204 14.664l0.78659 1.7145h5.5268zm33.434 5.9753c1.0478-0.44378 2.5336-1.0658 3.302-1.3823 0.76835-0.3165 4.2545-1.7959 7.747-3.2875 3.4925-1.4916 7.0644-3.0032 7.9375-3.3591 1.4891-0.60691 1.5875-0.69821 1.5875-1.4727 0-2.3064-2.3861-8.7226-5.2932-14.233l-1.4739-2.794-3.6649-0.30209c-2.0157-0.16616-3.9507-0.35469-4.2999-0.41898-0.4991-0.0919-0.74639 0.0543-1.1555 0.6831-0.28628 0.43998-1.651 2.4002-3.0328 4.356-1.3818 1.9558-3.3558 4.7562-4.3867 6.223l-1.8744 2.667 0.16287 1.524c0.0896 0.8382 0.55477 4.0122 1.0337 7.0534 0.47898 3.0412 0.87087 5.5966 0.87087 5.6787s0.14288 0.0868 0.3175 0.0105c0.17463-0.0763 1.1748-0.50191 2.2225-0.9457z" stroke-width=".254"/></g></svg>
